# 3ds Max Wavefront OBJ Exporter v0.97b - (c)2007 guruware
# File Created: 19.07.2018 22:16:34

mtllib 065_bat.mtl

#
# object 0
#

v  -0.1670 0.0772 0.2781
v  -0.1076 0.0309 0.3489
v  -0.1232 0.0343 0.4417
v  -0.2059 0.1125 0.3631
v  0.1232 0.0343 0.4417
v  0.1076 0.0309 0.3489
v  0.1670 0.0772 0.2781
v  0.2059 0.1125 0.3631
v  -0.0794 0.0466 0.2195
v  0.0794 0.0466 0.2195
v  -0.1200 0.1139 0.1780
v  0.1200 0.1139 0.1780
v  -0.2045 0.1666 0.2255
v  -0.2304 0.2371 0.2855
v  0.2045 0.1666 0.2255
v  0.2304 0.2371 0.2855
v  0.0000 0.0112 0.4824
v  0.0000 -0.0017 0.3779
v  0.0000 0.0264 0.2694
v  -0.1998 0.2599 0.2032
v  -0.1714 0.2014 0.1706
v  0.1714 0.2014 0.1706
v  0.1998 0.2599 0.2032
v  -0.1186 0.1492 0.1503
v  0.1186 0.1492 0.1503
v  0.0000 0.2737 0.1390
v  0.0000 0.2113 0.1258
v  0.0000 0.1706 0.1249
v  -0.1417 0.1080 0.4853
v  -0.1998 0.2275 0.3533
v  0.1998 0.2275 0.3533
v  0.1417 0.1080 0.4853
v  -0.1548 0.5146 0.2642
v  0.0000 0.3544 0.3643
v  0.0000 0.4049 0.2692
v  0.1548 0.5146 0.2642
v  0.0000 0.3576 0.1888
v  -0.1610 0.1804 0.4294
v  -0.1842 0.3040 0.4201
v  0.1842 0.3040 0.4201
v  0.1610 0.1804 0.4294
v  0.0000 0.0959 0.5454
v  0.0000 0.1526 0.4838
v  0.0000 0.2980 0.4660
v  -0.2358 0.3616 0.3154
v  0.2358 0.3616 0.3154
v  -0.2223 0.3696 0.2542
v  0.2223 0.3696 0.2542
# 48 vertices

vn -0.6873 -0.6734 -0.2722
vn -0.3911 -0.9163 -0.0864
vn -0.5113 -0.7839 0.3522
vn -0.9190 -0.3471 0.1869
vn 0.5113 -0.7839 0.3522
vn 0.3911 -0.9163 -0.0864
vn 0.6873 -0.6734 -0.2722
vn 0.9190 -0.3471 0.1869
vn -0.4050 -0.8535 -0.3280
vn 0.4050 -0.8535 -0.3280
vn -0.6227 -0.5397 -0.5665
vn 0.6227 -0.5397 -0.5665
vn -0.8565 -0.2818 -0.4324
vn -0.9947 -0.0690 -0.0766
vn 0.8565 -0.2818 -0.4324
vn 0.9947 -0.0690 -0.0766
vn 0.0000 -0.8528 0.5222
vn -0.0000 -0.9999 -0.0144
vn -0.0000 -0.9680 -0.2509
vn -0.7114 0.1068 -0.6946
vn -0.5839 0.0099 -0.8118
vn 0.5839 0.0099 -0.8118
vn 0.7114 0.1068 -0.6946
vn -0.4584 -0.1411 -0.8775
vn 0.4584 -0.1411 -0.8775
vn 0.0000 0.3375 -0.9413
vn 0.0000 0.1337 -0.9910
vn -0.0000 0.0460 -0.9989
vn -0.5670 0.0882 0.8190
vn -0.9108 -0.0372 0.4113
vn 0.9108 -0.0372 0.4113
vn 0.5670 0.0882 0.8190
vn -0.2936 0.9440 -0.1506
vn 0.0000 0.7963 0.6048
vn 0.0000 0.9999 -0.0155
vn 0.2936 0.9440 -0.1506
vn 0.0000 0.6743 -0.7385
vn -0.6171 0.1852 0.7648
vn -0.4998 0.2818 0.8190
vn 0.4998 0.2818 0.8190
vn 0.6171 0.1852 0.7648
vn -0.0000 0.0580 0.9983
vn -0.0000 0.5020 0.8649
vn -0.0000 0.5543 0.8323
vn -0.8894 0.3378 0.3079
vn 0.8894 0.3378 0.3079
vn -0.7880 0.2463 -0.5643
vn 0.7880 0.2463 -0.5643
# 48 vertex normals

vt 0.8766 0.3859 0.0000
vt 0.8689 0.4061 0.0000
vt 0.8617 0.3856 0.0000
vt 0.8769 0.3452 0.0000
vt 0.8762 0.4266 0.0000
vt 0.9461 0.3901 0.0000
vt 0.9445 0.3404 0.0000
vt 0.9115 0.3677 0.0000
vt 0.9428 0.2906 0.0000
vt 0.7597 0.4056 0.0000
vt 0.7753 0.4211 0.0000
vt 0.7910 0.4366 0.0000
vt 0.1390 0.1961 0.0000
vt 0.1760 0.1476 0.0000
vt 0.2099 0.1586 0.0000
vt 0.1910 0.2038 0.0000
vt 0.2437 0.1696 0.0000
vt 0.2430 0.2114 0.0000
vt 0.2162 0.0414 0.0000
vt 0.2400 0.0471 0.0000
vt 0.2638 0.0529 0.0000
vt 0.8535 0.3477 0.0000
vt 0.8776 0.2639 0.0000
vt 0.9625 0.1176 0.0000
vt 0.8407 0.1455 0.0000
vt 0.8532 0.0762 0.0000
vt 0.8610 0.0275 0.0000
vt 0.8478 0.3167 0.0000
vt 0.8460 0.2266 0.0000
vt 0.6512 0.9200 0.0000
vt 0.6645 0.9698 0.0000
vt 0.7618 0.9781 0.0000
vt 0.7618 0.9391 0.0000
vt 0.7618 0.8392 0.0000
vt 0.6353 0.8351 0.0000
vt 0.9492 0.2245 0.0000
vt 0.7352 0.2253 0.0000
vt 0.7380 0.3574 0.0000
vt 0.0372 0.0845 0.0000
vt 0.1573 0.0220 0.0000
vt 0.0981 0.1332 0.0000
vt 0.0824 0.1663 0.0000
# 42 texture coords

g 0
usemtl Material__48
s 1
f 1/1/1 2/2/2 3/3/3 
f 1/1/1 3/3/3 4/4/4 
f 5/3/5 6/2/6 7/1/7 
f 5/3/5 7/1/7 8/4/8 
f 1/1/1 9/5/9 2/2/2 
f 6/2/6 10/5/10 7/1/7 
f 9/5/9 1/1/1 11/6/11 
f 12/6/12 7/1/7 10/5/10 
f 13/7/13 1/8/1 4/4/4 
f 13/7/13 4/4/4 14/9/14 
f 8/4/8 7/8/7 15/7/15 
f 8/4/8 15/7/15 16/9/16 
f 11/6/11 1/8/1 13/7/13 
f 7/8/7 12/6/12 15/7/15 
f 17/10/17 3/3/3 2/2/2 
f 17/10/17 2/2/2 18/11/18 
f 6/2/6 5/3/5 17/10/17 
f 6/2/6 17/10/17 18/11/18 
f 18/11/18 2/2/2 9/5/9 
f 18/11/18 9/5/9 19/12/19 
f 10/5/10 6/2/6 18/11/18 
f 10/5/10 18/11/18 19/12/19 
f 14/13/14 20/14/20 21/15/21 
f 14/13/14 21/15/21 13/16/13 
f 22/15/22 23/14/23 16/13/16 
f 22/15/22 16/13/16 15/16/15 
f 13/16/13 21/15/21 24/17/24 
f 13/16/13 24/17/24 11/18/11 
f 25/17/25 22/15/22 15/16/15 
f 25/17/25 15/16/15 12/18/12 
f 20/14/20 26/19/26 27/20/27 
f 20/14/20 27/20/27 21/15/21 
f 27/20/27 26/19/26 23/14/23 
f 27/20/27 23/14/23 22/15/22 
f 21/15/21 27/20/27 28/21/28 
f 21/15/21 28/21/28 24/17/24 
f 28/21/28 27/20/27 22/15/22 
f 28/21/28 22/15/22 25/17/25 
f 29/22/29 30/23/30 4/4/4 
f 8/4/8 31/23/31 32/22/32 
f 3/3/3 29/22/29 4/4/4 
f 8/4/8 32/22/32 5/3/5 
f 14/9/14 4/4/4 30/23/30 
f 31/23/31 8/4/8 16/9/16 
f 33/24/33 34/25/34 35/26/35 
f 35/26/35 34/25/34 36/24/36 
f 33/24/33 35/26/35 37/27/37 
f 37/27/37 35/26/35 36/24/36 
f 38/28/38 39/29/39 30/23/30 
f 31/23/31 40/29/40 41/28/41 
f 29/22/29 38/28/38 30/23/30 
f 31/23/31 41/28/41 32/22/32 
f 38/30/38 29/31/29 42/32/42 
f 38/30/38 42/32/42 43/33/43 
f 42/32/42 32/31/32 41/30/41 
f 42/32/42 41/30/41 43/33/43 
f 43/33/43 44/34/44 39/35/39 
f 43/33/43 39/35/39 38/30/38 
f 40/35/40 44/34/44 43/33/43 
f 40/35/40 43/33/43 41/30/41 
f 39/29/39 45/36/45 30/23/30 
f 31/23/31 46/36/46 40/29/40 
f 44/37/44 34/25/34 45/36/45 
f 44/37/44 45/36/45 39/29/39 
f 46/36/46 34/25/34 44/37/44 
f 46/36/46 44/37/44 40/29/40 
f 29/22/29 3/3/3 17/10/17 
f 29/22/29 17/10/17 42/38/42 
f 17/10/17 5/3/5 32/22/32 
f 17/10/17 32/22/32 42/38/42 
f 33/39/33 37/40/37 47/41/47 
f 48/41/48 37/40/37 36/39/36 
f 33/39/33 47/41/47 45/42/45 
f 46/42/46 48/41/48 36/39/36 
f 20/14/20 45/42/45 47/41/47 
f 48/41/48 46/42/46 23/14/23 
f 26/19/26 47/41/47 37/40/37 
f 37/40/37 48/41/48 26/19/26 
f 26/19/26 20/14/20 47/41/47 
f 48/41/48 23/14/23 26/19/26 
f 33/24/33 45/36/45 34/25/34 
f 34/25/34 46/36/46 36/24/36 
f 45/42/45 20/14/20 14/13/14 
f 16/13/16 23/14/23 46/42/46 
f 45/36/45 14/9/14 30/23/30 
f 31/23/31 16/9/16 46/36/46 
# 0 polygons - 86 triangles

#
# object 001
#

v  -0.0643 -0.0004 -0.2982
v  -0.0599 0.0429 -0.0743
v  -0.1932 0.1448 -0.0820
v  -0.1568 0.1722 0.0544
v  -0.0998 0.0453 0.0409
v  -0.4930 0.5589 0.0679
v  -0.3509 0.3825 -0.0006
v  -0.2883 0.3036 0.0977
v  -0.2721 0.3686 0.0854
v  -0.2909 0.4367 0.1976
v  -0.1313 0.3094 0.2367
v  -0.2358 0.3167 0.0359
v  -0.2709 0.2481 0.0390
v  -0.2965 0.2790 -0.1731
v  -0.1167 0.2500 0.1364
v  -0.1287 0.2196 0.0338
v  -0.0194 0.1383 0.1475
v  -0.0260 0.1143 -0.0002
# 18 vertices

vn -0.6049 -0.7795 0.1627
vn -0.6980 -0.7096 0.0967
vn -0.6533 -0.7311 0.1967
vn -0.6246 -0.6282 0.4639
vn -0.8928 -0.4343 0.1193
vn -0.7125 0.6944 -0.1006
vn -0.8229 -0.5672 0.0326
vn -0.6745 -0.5914 0.4420
vn 0.6103 0.7186 -0.3333
vn 0.5526 0.7382 -0.3869
vn 0.0288 0.5884 0.8080
vn 0.5317 0.0883 0.8423
vn 0.6277 0.7158 -0.3059
vn -0.7139 -0.6419 0.2798
vn 0.6805 0.6009 -0.4192
vn -0.8282 -0.5602 0.0184
vn 0.9458 0.1150 0.3037
vn 0.6578 0.6440 -0.3906
vn 0.2455 0.4226 0.8724
vn 0.5170 0.7689 -0.3761
vn 0.6002 0.5674 -0.5637
vn 0.3407 0.8619 -0.3755
vn 0.7219 -0.6709 0.1694
vn 0.7335 -0.6253 0.2664
vn 0.7221 -0.6704 0.1705
vn 0.7049 -0.7044 0.0827
vn 0.8663 -0.4934 0.0785
# 27 vertex normals

vt 0.0655 1.0155 0.0000
vt 0.1067 0.8579 0.0000
vt 0.2549 0.8406 0.0000
vt 0.2675 0.7093 0.0000
vt 0.1480 0.7002 0.0000
vt 0.7088 0.6309 0.0000
vt 0.5254 0.7682 0.0000
vt 0.4312 0.7016 0.0000
vt 0.4653 0.5168 0.0000
vt 0.5437 0.4509 0.0000
vt 0.4790 0.6071 0.0000
vt 0.3959 0.6008 0.0000
vt 0.4090 0.4684 0.0000
vt 0.3699 0.7516 0.0000
vt 0.4434 0.2694 0.0000
vt 0.4088 0.9401 0.0000
vt 0.3151 0.5944 0.0000
vt 0.2910 0.4864 0.0000
vt 0.1886 0.5939 0.0000
vt 0.1527 0.4638 0.0000
vt 0.2744 0.3453 0.0000
vt 0.0655 0.1875 0.0000
vt 0.1354 0.6746 0.0000
vt 0.1100 0.6101 0.0000
vt 0.0736 0.6705 0.0000
vt 0.0495 1.0195 0.0000
vt 0.1062 0.8951 0.0000
# 27 texture coords

g 001
usemtl Material__50
s 1
f 49/43/49 50/44/50 51/45/51 
f 52/46/52 50/44/50 53/47/53 
f 51/45/51 50/44/50 52/46/52 
f 54/48/54 55/49/55 56/50/56 
f 54/48/54 57/51/57 55/52/58 
f 58/53/59 54/48/54 56/50/56 
f 54/48/54 58/53/59 57/51/57 
f 59/54/60 58/53/59 56/50/56 
f 58/53/59 59/54/60 57/51/57 
f 57/51/57 59/54/60 60/55/61 
f 56/50/56 61/56/62 59/54/60 
f 57/51/57 60/55/61 62/57/63 
f 57/51/57 62/57/63 55/52/58 
f 55/49/55 62/58/64 61/56/62 
f 55/49/55 61/56/62 56/50/56 
f 60/55/61 59/54/60 63/59/65 
f 60/55/61 63/59/65 64/60/66 
f 64/60/66 63/59/65 65/61/67 
f 64/60/66 65/61/67 66/62/68 
f 59/54/60 61/56/62 52/46/52 
f 59/54/60 52/46/52 63/59/65 
f 63/59/65 52/46/52 53/47/53 
f 63/59/65 53/47/53 65/61/67 
f 62/57/63 60/55/61 64/60/66 
f 62/57/63 64/60/66 51/63/69 
f 51/63/69 64/60/66 66/62/68 
f 51/63/69 66/62/68 49/64/70 
f 61/56/62 62/58/64 51/45/51 
f 61/56/62 51/45/51 52/46/52 
f 53/65/71 50/66/72 66/67/73 
f 53/65/71 66/67/73 65/68/74 
f 50/43/75 49/69/75 66/68/75 
# 0 polygons - 32 triangles

#
# object 002
#

v  0.0595 0.0429 -0.0746
v  0.0627 -0.0004 -0.2985
v  0.1928 0.1448 -0.0830
v  0.1000 0.0453 0.0403
v  0.1571 0.1722 0.0535
v  0.2889 0.3036 0.0962
v  0.3509 0.3825 -0.0026
v  0.4933 0.5589 0.0652
v  0.2726 0.3686 0.0840
v  0.2920 0.4367 0.1960
v  0.1326 0.3094 0.2360
v  0.2359 0.3167 0.0347
v  0.2711 0.2481 0.0375
v  0.2956 0.2790 -0.1747
v  0.1174 0.2500 0.1358
v  0.1289 0.2196 0.0331
v  0.0202 0.1383 0.1474
v  0.0260 0.1143 -0.0004
# 18 vertices

vn 0.9984 0.0406 0.0391
vn 0.9917 -0.0769 0.1026
vn 0.9903 -0.0095 0.1385
vn 0.9265 0.3690 0.0744
vn 0.9106 0.0311 0.4120
vn 0.9155 0.0934 0.3913
vn 0.9729 0.2303 -0.0188
vn -0.0429 0.9964 -0.0727
vn -0.9393 0.0939 -0.3299
vn -0.9603 0.0366 -0.2764
vn -0.4074 0.3519 0.8427
vn -0.3719 -0.3572 0.8568
vn -0.9683 0.0211 -0.2489
vn 0.9698 0.0931 0.2256
vn -0.9253 -0.0921 -0.3679
vn 0.9704 0.2393 -0.0326
vn -0.7007 -0.6329 0.3294
vn -0.9402 -0.0472 -0.3372
vn -0.4259 0.0784 0.9013
vn -0.9376 0.1406 -0.3180
vn -0.8552 -0.0512 -0.5158
vn -0.8883 0.3337 -0.3154
vn 0.0191 -0.9915 0.1290
vn 0.1842 -0.9649 0.1871
vn 0.0208 -0.9913 0.1296
vn -0.2537 -0.9670 0.0247
vn -0.2103 -0.9754 0.0660
# 27 vertex normals

vt 0.1005 0.8331 0.0000
vt 0.0593 0.9907 0.0000
vt 0.2487 0.8159 0.0000
vt 0.1418 0.6755 0.0000
vt 0.2613 0.6846 0.0000
vt 0.4251 0.6769 0.0000
vt 0.5192 0.7434 0.0000
vt 0.7026 0.6062 0.0000
vt 0.5375 0.4262 0.0000
vt 0.4591 0.4921 0.0000
vt 0.4728 0.5824 0.0000
vt 0.3897 0.5761 0.0000
vt 0.4028 0.4437 0.0000
vt 0.3638 0.7269 0.0000
vt 0.4372 0.2447 0.0000
vt 0.4026 0.9154 0.0000
vt 0.3089 0.5696 0.0000
vt 0.2848 0.4616 0.0000
vt 0.1824 0.5692 0.0000
vt 0.1465 0.4391 0.0000
vt 0.2683 0.3206 0.0000
vt 0.0593 0.1628 0.0000
vt 0.0526 0.6821 0.0000
vt 0.0543 0.5424 0.0000
vt 0.1374 0.6515 0.0000
vt 0.0433 0.9947 0.0000
vt 0.0592 0.8133 0.0000
vt 0.1182 0.7911 0.0000
# 28 texture coords

g 002
usemtl Material__51
s 1
f 67/70/76 68/71/77 69/72/78 
f 70/73/79 67/70/76 71/74/80 
f 67/70/76 69/72/78 71/74/80 
f 72/75/81 73/76/82 74/77/83 
f 73/78/84 75/79/85 74/77/83 
f 72/75/81 74/77/83 76/80/86 
f 75/79/85 76/80/86 74/77/83 
f 72/75/81 76/80/86 77/81/87 
f 75/79/85 77/81/87 76/80/86 
f 78/82/88 77/81/87 75/79/85 
f 77/81/87 79/83/89 72/75/81 
f 80/84/90 78/82/88 75/79/85 
f 80/84/90 75/79/85 73/78/84 
f 79/83/89 80/85/91 73/76/82 
f 79/83/89 73/76/82 72/75/81 
f 81/86/92 77/81/87 78/82/88 
f 81/86/92 78/82/88 82/87/93 
f 83/88/94 81/86/92 82/87/93 
f 83/88/94 82/87/93 84/89/95 
f 71/74/80 79/83/89 77/81/87 
f 71/74/80 77/81/87 81/86/92 
f 70/73/79 71/74/80 81/86/92 
f 70/73/79 81/86/92 83/88/94 
f 82/87/93 78/82/88 80/84/90 
f 82/87/93 80/84/90 69/90/96 
f 84/89/95 82/87/93 69/90/96 
f 84/89/95 69/90/96 68/91/97 
f 69/72/78 80/85/91 79/83/89 
f 69/72/78 79/83/89 71/74/80 
f 67/92/98 70/93/99 83/94/100 
f 67/92/98 83/94/100 84/95/101 
f 68/96/102 67/71/102 84/97/102 
# 0 polygons - 32 triangles

#
# object 003
#

v  0.0673 -0.0426 -0.2586
v  0.0000 0.0531 -0.0776
v  0.0000 0.1131 0.0258
v  0.1133 0.0878 0.0336
v  -0.0673 -0.0426 -0.2586
v  -0.1050 0.0878 0.0336
v  0.0455 -0.0236 -0.0540
v  0.0000 -0.0430 -0.0475
v  -0.0455 -0.0236 -0.0540
v  0.0000 0.1679 0.1355
v  0.0991 0.1500 0.1567
v  -0.0991 0.1500 0.1567
v  0.1146 0.1205 0.1799
v  -0.1062 0.1205 0.1799
v  0.0000 -0.0373 -0.2095
v  0.0723 -0.0286 0.0161
v  0.0000 -0.0585 0.0293
v  -0.0723 -0.0286 0.0161
v  0.1133 -0.0097 0.0823
v  0.0000 -0.0571 0.1003
v  -0.1050 -0.0097 0.0823
v  0.0827 0.0117 0.1662
v  0.0000 -0.0169 0.1971
v  -0.0827 0.0117 0.1662
v  0.0664 0.0642 0.2145
v  0.0000 0.0474 0.2563
v  -0.0664 0.0642 0.2145
v  0.0923 0.0079 -0.0364
v  -0.0840 0.0079 -0.0364
# 29 vertices

vn -0.1419 0.8455 -0.5148
vn 0.0000 0.8609 -0.5087
vn -0.0081 0.8952 -0.4457
vn 0.2977 0.8617 -0.4108
vn 0.1451 0.8445 -0.5155
vn -0.3143 0.8544 -0.4139
vn 0.4658 -0.8845 -0.0251
vn 0.0000 -0.9979 -0.0643
vn 0.3053 -0.9520 0.0239
vn -0.1519 -0.9878 0.0358
vn -0.5036 -0.8635 -0.0265
vn -0.0043 0.8983 -0.4394
vn 0.6604 0.6982 -0.2764
vn -0.7567 0.5975 -0.2655
vn 0.9108 0.4011 -0.0974
vn -0.9792 0.1959 -0.0520
vn 0.0000 -0.9994 -0.0349
vn -0.0000 0.8248 -0.5654
vn 0.5117 -0.8458 -0.1510
vn 0.0000 -0.9969 -0.0793
vn -0.5774 -0.8021 -0.1525
vn 0.8219 -0.5623 0.0909
vn -0.0107 -0.9762 0.2164
vn -0.6140 -0.7689 0.1783
vn 0.6523 -0.5707 0.4988
vn -0.0036 -0.8129 0.5823
vn -0.6922 -0.5562 0.4599
vn 0.6550 -0.3906 0.6469
vn -0.0000 -0.6320 0.7750
vn -0.6828 -0.3676 0.6313
vn 0.8140 -0.3002 0.4972
vn -0.8654 -0.2418 0.4389
vn 0.6061 -0.7853 -0.1265
vn -0.8089 -0.5729 -0.1323
vn 0.9779 -0.0935 -0.1871
vn 0.9936 -0.0691 -0.0889
vn 1.0000 -0.0037 -0.0075
vn 0.9774 -0.2013 -0.0641
vn -0.9815 0.1089 -0.1577
vn -0.9958 -0.0465 -0.0783
vn -0.9510 -0.3032 0.0600
vn -0.9707 -0.2397 -0.0183
# 42 vertex normals

vt 0.7450 0.1083 0.0000
vt 0.5240 0.0394 0.0000
vt 0.3956 0.0395 0.0000
vt 0.4020 0.1495 0.0000
vt 0.9236 0.7452 0.0000
vt 0.8721 0.7389 0.0000
vt 0.9463 0.9554 0.0000
vt 0.2638 0.0417 0.0000
vt 0.2437 0.1584 0.0000
vt 0.2430 0.2002 0.0000
vt 0.8754 0.9063 0.0000
vt 0.6957 0.0334 0.0000
vt 0.9494 0.6742 0.0000
vt 0.8665 0.6567 0.0000
vt 0.9628 0.5674 0.0000
vt 0.8467 0.5807 0.0000
vt 0.9152 0.4833 0.0000
vt 0.8234 0.5116 0.0000
vt 0.8762 0.4154 0.0000
vt 0.7910 0.4254 0.0000
vt 0.9461 0.3789 0.0000
vt 0.9620 0.7197 0.0000
vt 0.4411 0.0834 0.0000
# 23 texture coords

g 003
usemtl Material__49
s 1
f 85/98/103 86/99/104 87/100/105 
f 85/98/103 87/100/105 88/101/106 
f 87/100/105 86/99/104 89/98/107 
f 87/100/105 89/98/107 90/101/108 
f 91/102/109 92/103/110 85/104/111 
f 89/104/112 92/103/110 93/102/113 
f 88/101/106 87/100/105 94/105/114 
f 88/101/106 94/105/114 95/106/115 
f 94/105/114 87/100/105 90/101/108 
f 94/105/114 90/101/108 96/106/116 
f 88/101/106 95/106/115 97/107/117 
f 98/107/118 96/106/116 90/101/108 
f 92/103/110 99/108/119 85/104/111 
f 89/104/112 99/108/119 92/103/110 
f 99/109/120 86/99/104 85/98/103 
f 89/98/107 86/99/104 99/109/120 
f 91/102/109 100/110/121 101/111/122 
f 91/102/109 101/111/122 92/103/110 
f 101/111/122 102/110/123 93/102/113 
f 101/111/122 93/102/113 92/103/110 
f 100/110/121 103/112/124 104/113/125 
f 100/110/121 104/113/125 101/111/122 
f 104/113/125 105/112/126 102/110/123 
f 104/113/125 102/110/123 101/111/122 
f 103/112/124 106/114/127 107/115/128 
f 103/112/124 107/115/128 104/113/125 
f 107/115/128 108/114/129 105/112/126 
f 107/115/128 105/112/126 104/113/125 
f 106/114/127 109/116/130 110/117/131 
f 106/114/127 110/117/131 107/115/128 
f 110/117/131 111/116/132 108/114/129 
f 110/117/131 108/114/129 107/115/128 
f 109/116/130 106/114/127 97/118/133 
f 98/118/134 108/114/129 111/116/132 
f 106/114/127 103/112/124 97/118/133 
f 98/118/134 105/112/126 108/114/129 
f 91/102/109 112/119/135 100/110/121 
f 102/110/123 113/119/136 93/102/113 
f 91/102/109 85/104/111 112/119/135 
f 113/119/136 89/104/112 93/102/113 
f 103/112/124 100/110/121 112/119/135 
f 113/119/136 102/110/123 105/112/126 
f 103/112/124 112/110/137 88/119/138 
f 103/112/124 88/119/138 97/120/139 
f 112/102/140 85/104/111 88/119/138 
f 113/119/136 105/110/141 98/112/142 
f 113/119/136 98/112/142 90/120/143 
f 89/119/144 113/104/144 90/102/144 
# 0 polygons - 48 triangles

