mtllib Sign.mtl
g object_012EBFF4
v -0.500001 4 -3.989917
v -0.499999 4 3.989917
v -0.500001 9.999999 -3.989917
v -0.499999 9.999999 3.989917
v 0.249999 4 -3.989917
v 0.250001 4 3.989917
v 0.249999 9.999999 -3.989917
v 0.250001 9.999999 3.989917
vn -0.57735 -0.57735 -0.57735
vn -0.57735 -0.57735 0.57735
vn -0.57735 0.57735 -0.57735
vn -0.57735 0.57735 0.57735
vn 0.57735 -0.57735 -0.57735
vn 0.57735 -0.57735 0.57735
vn 0.57735 0.57735 -0.57735
vn 0.57735 0.57735 0.57735
usemtl object_012EBFF4_material_18
vt 0.9882353 -0.007843138
vt 0.8745098 -0.01176471
vt 0.9882353 -0.7333333
vt 0.8705882 -0.7333333
vt 0.003921569 -0.8705882
vt 0.007843138 -0.1215686
vt 0.7372549 -0.8705882
vt 0.7372549 -0.1215686
vt 0.8745098 -0.01176471
vt 0.9882353 -0.007843138
vt 0.8705882 -0.7333333
vt 0.9882353 -0.7333333
vt 0.003921569 -0.9882353
vt 0.7372549 -0.9882353
vt 0.003921569 -0.8705882
vt 0.007843138 -0.01176471
vt 0.7372549 -0.003921569
vt 0.007843138 -0.1215686
vt 0.7372549 -0.1215686
vt 0.003921569 -0.8705882
vt 0.7372549 -0.8705882
vt 0.7372549 -0.9882353
f 8/1/8 4/2/4 6/3/6
f 6/3/6 4/2/4 2/4/2

f 5/5/5 7/6/7 6/7/6
f 6/7/6 7/6/7 8/8/8

f 3/9/3 7/10/7 1/11/1
f 1/11/1 7/10/7 5/12/5

f 5/13/5 6/14/6 1/15/1

f 8/17/8 7/16/7 3/18/3
f 8/17/8 3/18/3 4/19/4
f 4/19/4 3/18/3 1/20/1
f 4/19/4 1/20/1 2/21/2
f 2/21/2 1/20/1 6/22/6


g object_012EBE0C
v 0.25 0 -0.5379609
v 0.25 0 0.5379599
v 0.25 9.013618 -0.5379609
v 0.25 9.013618 0.5379599
v 0.7499999 0 -0.5379609
v 0.7499999 0 0.5379599
v 0.7499999 9.013618 -0.5379609
v 0.7499999 9.013618 0.5379599
v 0.274269 6.474844 -1.215126
v 0.274269 8.015697 -1.215126
v 0.27427 6.474844 1.215126
v 0.27427 8.015697 1.215126
v 0.274269 7.498114 -1.215126
v 0.27427 7.498114 1.215126
v 0.27427 6.99243 1.215126
v 0.274269 6.99243 -1.215126
v 0.274269 7.498114 -0.573239
v 0.274269 8.015697 -0.573239
v 0.8008429 7.498114 -0.573872
v 0.8008429 8.015697 -0.573872
v 0.8008429 8.015697 0.573872
v 0.8008429 7.498114 0.573872
v 0.27427 7.498114 0.573239
v 0.27427 8.015697 0.573239
v 0.27427 6.474844 0.573239
v 0.274269 6.474844 -0.573239
v 0.8008429 6.99243 0.573872
v 0.8008429 6.474844 0.573872
v 0.27427 6.99243 0.573239
v 0.8008429 6.99243 -0.573872
v 0.8008429 6.474844 -0.573872
v 0.274269 6.99243 -0.573239
v 0.8008429 8.015697 0
v 0.8008429 7.498114 0
v 0.8008429 6.99243 0
v 0.8008429 6.474844 0
vn -0.707107 0 -0.707107
vn -0.707107 0 0.707107
vn -0.57735 0.57735 -0.57735
vn -0.57735 0.57735 0.57735
vn 0.707107 0 -0.707107
vn 0.707107 0 0.707107
vn 0.57735 0.57735 -0.57735
vn 0.57735 0.57735 0.57735
vn 1 0 0
vn 1 0 0
vn 1 0 0
vn 1 0 0
vn 1 0 0
vn 1 0 0
vn 1 0 0
vn 1 0 0
vn 0.706682 0 -0.707532
vn 0.706682 0 -0.707532
vn 0.706682 0 -0.707532
vn 0.706682 0 -0.707532
vn 0.706682 0 0.707531
vn 0.706682 0 0.707531
vn 0.706682 0 0.707531
vn 0.706682 0 0.707531
vn 0.706682 0 0.707531
vn 0.706682 0 -0.707532
vn 0.706682 0 0.707531
vn 0.706682 0 0.707531
vn 0.706682 0 0.707531
vn 0.706682 0 -0.707532
vn 0.706682 0 -0.707532
vn 0.706682 0 -0.707532
vn 1 0 0
vn 1 0 0
vn 1 0 0
vn 1 0 0
usemtl object_012EBFF4_material_18
vt 0.9882353 -0.007843138
vt 0.9921569 -0.7411765
vt 0.8666667 -0.003921569
vt 0.8745098 -0.7372549
vt 0.7450981 -0.007843138
vt 0.7490196 -0.7372549
vt 0.8666667 -0.003921569
vt 0.9882353 -0.007843138
vt 0.8745098 -0.7372549
vt 0.9921569 -0.7411765
vt 0.8745098 -0.7372549
vt 0.7490196 -0.7372549
vt 0.8666667 -0.003921569
vt 0.7450981 -0.007843138
vt 0.7450981 -0.007843138
vt 0.007843138 -0.007843138
vt 0.7490196 -0.1254902
vt 0.007843138 -0.1176471
vt 0.7568628 -0.7568628
vt 0.7529412 -0.9921569
vt 0.9019608 -0.7568628
vt 0.9019608 -0.9921569
vt 0.9490196 -0.7568628
vt 0.9529412 -0.9921569
vt 0.9921569 -0.7529412
vt 0.9921569 -0.9882353
vt 0.9490196 -0.7568628
vt 0.9529412 -0.9921569
vt 0.9019608 -0.7568628
vt 0.9019608 -0.9921569
vt 0.7568628 -0.7568628
vt 0.7529412 -0.9921569
vt 0.7529412 -0.9921569
vt 0.7568628 -0.7568628
vt 0.9019608 -0.9921569
vt 0.9019608 -0.7568628
vt 0.9529412 -0.9921569
vt 0.9490196 -0.7568628
vt 0.9921569 -0.9882353
vt 0.9921569 -0.7529412
vt 0.9529412 -0.9921569
vt 0.9490196 -0.7568628
vt 0.9019608 -0.9921569
vt 0.9019608 -0.7568628
vt 0.7529412 -0.9921569
vt 0.7568628 -0.7568628
f 14/24/14 16/23/16 12/25/12
f 14/24/14 12/25/12 10/26/10
f 10/26/10 12/25/12 11/27/11
f 10/26/10 11/27/11 9/28/9

f 11/29/11 15/30/15 9/31/9
f 9/31/9 15/30/15 13/32/13

f 14/33/14 13/34/13 16/35/16
f 16/35/16 13/34/13 15/36/15

f 16/37/16 15/38/15 12/39/12
f 12/39/12 15/38/15 11/40/11

f 21/42/21 18/41/18 26/43/26
f 21/42/21 26/43/26 25/44/25
f 25/44/25 26/43/26 28/45/28
f 25/44/25 28/45/28 27/46/27
f 27/46/27 28/45/28 41/47/41
f 27/46/27 41/47/41 42/48/42
f 42/48/42 41/47/41 29/49/29
f 42/48/42 29/49/29 30/50/30
f 30/50/30 29/49/29 32/51/32
f 30/50/30 32/51/32 31/52/31
f 31/52/31 32/51/32 20/53/20
f 31/52/31 20/53/20 22/54/22

f 23/56/23 19/55/19 33/57/33
f 23/56/23 33/57/33 37/58/37
f 37/58/37 33/57/33 36/59/36
f 37/58/37 36/59/36 35/60/35
f 35/60/35 36/59/36 44/61/44
f 35/60/35 44/61/44 43/62/43
f 43/62/43 44/61/44 39/63/39
f 43/62/43 39/63/39 38/64/38
f 38/64/38 39/63/39 34/65/34
f 38/64/38 34/65/34 40/66/40
f 40/66/40 34/65/34 17/67/17
f 40/66/40 17/67/17 24/68/24


g object_012EB8F8
v -0.5499989 4.25 2.777041
v -0.550001 9.749999 -2.777041
v -0.550001 4.25 -2.777041
v -0.5499989 9.749999 2.777041
vn -1 0 0
vn -1 0 0
vn -1 0 0
vn -1 0 0
usemtl object_012EBFF4_material_7
vt 0 0
vt 0 -1
vt 1 0
vt 1 -1
f 46/69/46 47/70/47 48/71/48
f 48/71/48 47/70/47 45/72/45


